<svg xmlns="http://www.w3.org/2000/svg" xmlns:xlink="http://www.w3.org/1999/xlink" width="3000" zoomAndPan="magnify" viewBox="0 0 2250 1949.99992" height="2600" preserveAspectRatio="xMidYMid meet" version="1.0"><defs><filter x="0%" y="0%" width="100%" height="100%" id="78adf159ec"><feColorMatrix values="0 0 0 0 1 0 0 0 0 1 0 0 0 0 1 0 0 0 1 0" color-interpolation-filters="sRGB"/></filter><clipPath id="de9176c628"><path d="M 396.414062 427.347656 L 559.394531 427.347656 L 559.394531 562.25 L 396.414062 562.25 Z M 396.414062 427.347656 " clip-rule="nonzero"/></clipPath><clipPath id="dbbab88f6e"><path d="M 0.414062 0.347656 L 163.394531 0.347656 L 163.394531 135.25 L 0.414062 135.25 Z M 0.414062 0.347656 " clip-rule="nonzero"/></clipPath><clipPath id="f998ece837"><rect x="0" width="164" y="0" height="136"/></clipPath><clipPath id="db588bada0"><path d="M 1046.679688 428.386719 L 1209.65625 428.386719 L 1209.65625 563.292969 L 1046.679688 563.292969 Z M 1046.679688 428.386719 " clip-rule="nonzero"/></clipPath><clipPath id="8aa54ea88b"><path d="M 0.679688 0.386719 L 163.65625 0.386719 L 163.65625 135.292969 L 0.679688 135.292969 Z M 0.679688 0.386719 " clip-rule="nonzero"/></clipPath><clipPath id="864f8d8d15"><rect x="0" width="164" y="0" height="136"/></clipPath><mask id="264c3de737"><g filter="url(#78adf159ec)"><rect x="-225" width="2700" fill="#000000" y="-194.999992" height="2339.999904" fill-opacity="0.1"/></g></mask><clipPath id="3f348b1c5b"><path d="M 0.40625 1.050781 L 163.382812 1.050781 L 163.382812 135.957031 L 0.40625 135.957031 Z M 0.40625 1.050781 " clip-rule="nonzero"/></clipPath><clipPath id="ba463f4af4"><path d="M 0.40625 0.0507812 L 163.382812 0.0507812 L 163.382812 134.957031 L 0.40625 134.957031 Z M 0.40625 0.0507812 " clip-rule="nonzero"/></clipPath><clipPath id="7d376ffab7"><rect x="0" width="164" y="0" height="135"/></clipPath><clipPath id="2a8b0fb512"><rect x="0" width="164" y="0" height="136"/></clipPath><mask id="99a29640bd"><g filter="url(#78adf159ec)"><rect x="-225" width="2700" fill="#000000" y="-194.999992" height="2339.999904" fill-opacity="0.1"/></g></mask><clipPath id="bccea7d7eb"><path d="M 0.675781 0.09375 L 163.652344 0.09375 L 163.652344 135 L 0.675781 135 Z M 0.675781 0.09375 " clip-rule="nonzero"/></clipPath><clipPath id="cad6c031db"><path d="M 0.675781 0.09375 L 163.652344 0.09375 L 163.652344 135 L 0.675781 135 Z M 0.675781 0.09375 " clip-rule="nonzero"/></clipPath><clipPath id="da3f42fdf5"><rect x="0" width="164" y="0" height="135"/></clipPath><clipPath id="4f553a92bf"><rect x="0" width="165" y="0" height="136"/></clipPath><mask id="81c15ce4db"><g filter="url(#78adf159ec)"><rect x="-225" width="2700" fill="#000000" y="-194.999992" height="2339.999904" fill-opacity="0.1"/></g></mask><clipPath id="ff024b8319"><path d="M 0.574219 0.472656 L 163.550781 0.472656 L 163.550781 135.375 L 0.574219 135.375 Z M 0.574219 0.472656 " clip-rule="nonzero"/></clipPath><clipPath id="7ad9543fa9"><path d="M 0.574219 0.472656 L 163.550781 0.472656 L 163.550781 135.375 L 0.574219 135.375 Z M 0.574219 0.472656 " clip-rule="nonzero"/></clipPath><clipPath id="7064807d49"><rect x="0" width="164" y="0" height="136"/></clipPath><clipPath id="0ffea68e8e"><rect x="0" width="165" y="0" height="136"/></clipPath><mask id="84a96c1b8b"><g filter="url(#78adf159ec)"><rect x="-225" width="2700" fill="#000000" y="-194.999992" height="2339.999904" fill-opacity="0.1"/></g></mask><clipPath id="8e4b66e32d"><path d="M 0.679688 0.0625 L 163.65625 0.0625 L 163.65625 134.96875 L 0.679688 134.96875 Z M 0.679688 0.0625 " clip-rule="nonzero"/></clipPath><clipPath id="a00b3cb156"><path d="M 0.679688 0.0625 L 163.65625 0.0625 L 163.65625 134.96875 L 0.679688 134.96875 Z M 0.679688 0.0625 " clip-rule="nonzero"/></clipPath><clipPath id="d746fc53d2"><rect x="0" width="164" y="0" height="135"/></clipPath><clipPath id="d4d977c67d"><rect x="0" width="165" y="0" height="136"/></clipPath><mask id="9d5de56fb0"><g filter="url(#78adf159ec)"><rect x="-225" width="2700" fill="#000000" y="-194.999992" height="2339.999904" fill-opacity="0.1"/></g></mask><clipPath id="48005e4cbb"><path d="M 0.753906 0.957031 L 163.734375 0.957031 L 163.734375 135.863281 L 0.753906 135.863281 Z M 0.753906 0.957031 " clip-rule="nonzero"/></clipPath><clipPath id="0802fbc51c"><path d="M 0.753906 0.957031 L 163.734375 0.957031 L 163.734375 135.863281 L 0.753906 135.863281 Z M 0.753906 0.957031 " clip-rule="nonzero"/></clipPath><clipPath id="3bc8891789"><rect x="0" width="164" y="0" height="136"/></clipPath><clipPath id="b46ceb9c73"><rect x="0" width="165" y="0" height="136"/></clipPath><mask id="502a310446"><g filter="url(#78adf159ec)"><rect x="-225" width="2700" fill="#000000" y="-194.999992" height="2339.999904" fill-opacity="0.1"/></g></mask><clipPath id="67d42d1fae"><path d="M 0.335938 0.902344 L 163.3125 0.902344 L 163.3125 135.804688 L 0.335938 135.804688 Z M 0.335938 0.902344 " clip-rule="nonzero"/></clipPath><clipPath id="175d3977f5"><path d="M 0.335938 0.902344 L 163.3125 0.902344 L 163.3125 135.804688 L 0.335938 135.804688 Z M 0.335938 0.902344 " clip-rule="nonzero"/></clipPath><clipPath id="4f85857290"><rect x="0" width="164" y="0" height="136"/></clipPath><clipPath id="29dd193386"><rect x="0" width="164" y="0" height="136"/></clipPath><mask id="a91f916cd3"><g filter="url(#78adf159ec)"><rect x="-225" width="2700" fill="#000000" y="-194.999992" height="2339.999904" fill-opacity="0.1"/></g></mask><clipPath id="38c0539266"><path d="M 0.414062 0.902344 L 163.394531 0.902344 L 163.394531 135.804688 L 0.414062 135.804688 Z M 0.414062 0.902344 " clip-rule="nonzero"/></clipPath><clipPath id="08330d7080"><path d="M 0.414062 0.902344 L 163.394531 0.902344 L 163.394531 135.804688 L 0.414062 135.804688 Z M 0.414062 0.902344 " clip-rule="nonzero"/></clipPath><clipPath id="f7455424b4"><rect x="0" width="164" y="0" height="136"/></clipPath><clipPath id="77849026e9"><rect x="0" width="164" y="0" height="136"/></clipPath><mask id="b3f08ae7f5"><g filter="url(#78adf159ec)"><rect x="-225" width="2700" fill="#000000" y="-194.999992" height="2339.999904" fill-opacity="0.1"/></g></mask><clipPath id="1aee5b6f5f"><path d="M 0.164062 0.335938 L 163.144531 0.335938 L 163.144531 135.242188 L 0.164062 135.242188 Z M 0.164062 0.335938 " clip-rule="nonzero"/></clipPath><clipPath id="27238a99eb"><path d="M 0.164062 0.335938 L 163 0.335938 L 163 135.242188 L 0.164062 135.242188 Z M 0.164062 0.335938 " clip-rule="nonzero"/></clipPath><clipPath id="d3c2581f8f"><rect x="0" width="164" y="0" height="136"/></clipPath><clipPath id="fc36ac30f9"><rect x="0" width="164" y="0" height="136"/></clipPath></defs><rect x="-225" width="2700" fill="#ffffff" y="-194.999992" height="2339.999904" fill-opacity="1"/><rect x="-225" width="2700" fill="#2a2a2a" y="-194.999992" height="2339.999904" fill-opacity="1"/><path stroke-linecap="butt" transform="matrix(0.75, 0.000000000000000132, -0.000000000000000132, 0.75, 234.42284, 426.210733)" fill="none" stroke-linejoin="miter" d="M -0.00128609 1.500273 L 1296.233196 1.500273 " stroke="#424242" stroke-width="3" stroke-opacity="1" stroke-miterlimit="4"/><path stroke-linecap="butt" transform="matrix(0.75, 0, 0, 0.75, 234.42284, 561.12617)" fill="none" stroke-linejoin="miter" d="M -0.00128609 1.498441 L 1296.233196 1.498441 " stroke="#424242" stroke-width="3" stroke-opacity="1" stroke-miterlimit="4"/><path stroke-linecap="butt" transform="matrix(0.75, 0, 0, 0.75, 234.42284, 696.041654)" fill="none" stroke-linejoin="miter" d="M -0.00128609 1.501753 L 1296.233196 1.501753 " stroke="#424242" stroke-width="3" stroke-opacity="1" stroke-miterlimit="4"/><path stroke-linecap="butt" transform="matrix(0.75, 0, 0, 0.75, 234.42284, 830.957163)" fill="none" stroke-linejoin="miter" d="M -0.00128609 1.499824 L 1296.233196 1.499824 " stroke="#424242" stroke-width="3" stroke-opacity="1" stroke-miterlimit="4"/><path stroke-linecap="butt" transform="matrix(0, -0.75, 0.75, 0, 395.285668, 1522.829394)" fill="none" stroke-linejoin="miter" d="M 0.0016921 1.499318 L 1819.324759 1.499318 " stroke="#424242" stroke-width="3" stroke-opacity="1" stroke-miterlimit="4"/><path stroke-linecap="butt" transform="matrix(0, -0.75, 0.75, 0, 558.263784, 1526.762442)" fill="none" stroke-linejoin="miter" d="M 0.000963998 1.502455 L 1824.574032 1.502455 " stroke="#424242" stroke-width="3" stroke-opacity="1" stroke-miterlimit="4"/><path stroke-linecap="butt" transform="matrix(0, -0.75, 0.75, 0, 719.921243, 1522.830234)" fill="none" stroke-linejoin="miter" d="M -0.00239624 1.500843 L 1819.320671 1.500843 " stroke="#424242" stroke-width="3" stroke-opacity="1" stroke-miterlimit="4"/><path stroke-linecap="butt" transform="matrix(0, -0.75, 0.75, 0, 882.899853, 1522.83093)" fill="none" stroke-linejoin="miter" d="M -0.00146824 1.498113 L 1819.321599 1.498113 " stroke="#424242" stroke-width="3" stroke-opacity="1" stroke-miterlimit="4"/><path stroke-linecap="butt" transform="matrix(0, -0.75, 0.75, 0, 1044.795536, 1526.76093)" fill="none" stroke-linejoin="miter" d="M -0.001052 1.501786 L 1824.561599 1.501786 " stroke="#424242" stroke-width="3" stroke-opacity="1" stroke-miterlimit="4"/><path stroke-linecap="butt" transform="matrix(0.75, 0.000000000000000132, -0.000000000000000132, 0.75, 232.264186, 291.2952)" fill="none" stroke-linejoin="miter" d="M 0.00191847 1.502234 L 1296.231192 1.502234 " stroke="#424242" stroke-width="3" stroke-opacity="1" stroke-miterlimit="4"/><path stroke-linecap="butt" transform="matrix(0.75, 0.00000930828, -0.00000930828, 0.75, 1204.438651, 426.210733)" fill="none" stroke-linejoin="miter" d="M -0.00151545 1.500273 L 1084.394408 1.50244 " stroke="#424242" stroke-width="3" stroke-opacity="1" stroke-miterlimit="4"/><path stroke-linecap="butt" transform="matrix(0.75, 0.00000930828, -0.00000930828, 0.75, 1204.438651, 561.126218)" fill="none" stroke-linejoin="miter" d="M -0.00151548 1.498377 L 1084.394408 1.500543 " stroke="#424242" stroke-width="3" stroke-opacity="1" stroke-miterlimit="4"/><path stroke-linecap="butt" transform="matrix(0.75, 0.00000933184, -0.00000933184, 0.75, 1206.47397, 696.041654)" fill="none" stroke-linejoin="miter" d="M -0.0017335 1.501753 L 1081.680648 1.49871 " stroke="#424242" stroke-width="3" stroke-opacity="1" stroke-miterlimit="4"/><path stroke-linecap="butt" transform="matrix(0.75, 0.00000930828, -0.00000930828, 0.75, 1204.438651, 830.957163)" fill="none" stroke-linejoin="miter" d="M -0.00151546 1.499824 L 1084.394408 1.501991 " stroke="#424242" stroke-width="3" stroke-opacity="1" stroke-miterlimit="4"/><path stroke-linecap="butt" transform="matrix(0.000525476, -0.75, 0.75, 0.000525476, 1205.467098, 1522.827762)" fill="none" stroke-linejoin="miter" d="M 0.000568593 1.502202 L 1819.308416 1.498366 " stroke="#424242" stroke-width="3" stroke-opacity="1" stroke-miterlimit="4"/><path stroke-linecap="butt" transform="matrix(0, -0.75, 0.75, 0, 1369.404893, 1522.832442)" fill="none" stroke-linejoin="miter" d="M 0.000547765 1.50181 L 1819.318407 1.50181 " stroke="#424242" stroke-width="3" stroke-opacity="1" stroke-miterlimit="4"/><path stroke-linecap="butt" transform="matrix(0, -0.75, 0.75, 0, 1531.061176, 1526.764554)" fill="none" stroke-linejoin="miter" d="M -0.00142834 1.501766 L 1824.550806 1.501766 " stroke="#424242" stroke-width="3" stroke-opacity="1" stroke-miterlimit="4"/><path stroke-linecap="butt" transform="matrix(0.000000001309, -0.75, 0.75, 0.000000001309, 1694.037338, 1522.830114)" fill="none" stroke-linejoin="miter" d="M -0.00255623 1.502299 L 1819.304886 1.502296 " stroke="#424242" stroke-width="3" stroke-opacity="1" stroke-miterlimit="4"/><path stroke-linecap="butt" transform="matrix(0, -0.75, 0.75, 0, 1855.936765, 1522.83081)" fill="none" stroke-linejoin="miter" d="M -0.00162824 1.500981 L 1819.305814 1.500981 " stroke="#424242" stroke-width="3" stroke-opacity="1" stroke-miterlimit="4"/><path stroke-linecap="butt" transform="matrix(0.75, 0.00000935671, -0.00000935671, 0.75, 1206.47397, 291.2952)" fill="none" stroke-linejoin="miter" d="M -0.00173344 1.502234 L 1078.805647 1.499191 " stroke="#424242" stroke-width="3" stroke-opacity="1" stroke-miterlimit="4"/><path stroke-linecap="butt" transform="matrix(0.749998, -0.00165602, 0.00165602, 0.749998, 234.420348, 969.91024)" fill="none" stroke-linejoin="miter" d="M -0.0012763 1.49989 L 2374.879698 1.49891 " stroke="#424242" stroke-width="3" stroke-opacity="1" stroke-miterlimit="4"/><path stroke-linecap="butt" transform="matrix(0.749998, -0.00165602, 0.00165602, 0.749998, 232.264186, 1108.843036)" fill="none" stroke-linejoin="miter" d="M -0.00139568 1.500952 L 2374.879579 1.499973 " stroke="#424242" stroke-width="3" stroke-opacity="1" stroke-miterlimit="4"/><path stroke-linecap="butt" transform="matrix(0.749998, -0.00165602, 0.00165602, 0.749998, 236.576525, 1247.775833)" fill="none" stroke-linejoin="miter" d="M -0.00118316 1.502016 L 2374.879791 1.501036 " stroke="#424242" stroke-width="3" stroke-opacity="1" stroke-miterlimit="4"/><path stroke-linecap="butt" transform="matrix(0.749998, -0.00165602, 0.00165602, 0.749998, 234.42284, 1386.708629)" fill="none" stroke-linejoin="miter" d="M 0.000614889 1.497874 L 2374.876369 1.502092 " stroke="#424242" stroke-width="3" stroke-opacity="1" stroke-miterlimit="4"/><g clip-path="url(#de9176c628)"><g transform="matrix(1, 0, 0, 1, 396, 427)"><g clip-path="url(#f998ece837)"><g clip-path="url(#dbbab88f6e)"><path fill="#424242" d="M 0.414062 0.347656 L 163.25 0.347656 L 163.25 135.25 L 0.414062 135.25 Z M 0.414062 0.347656 " fill-opacity="1" fill-rule="nonzero"/></g></g></g></g><g clip-path="url(#db588bada0)"><g transform="matrix(1, 0, 0, 1, 1046, 428)"><g clip-path="url(#864f8d8d15)"><g clip-path="url(#8aa54ea88b)"><path fill="#424242" d="M 0.679688 0.386719 L 163.511719 0.386719 L 163.511719 135.292969 L 0.679688 135.292969 Z M 0.679688 0.386719 " fill-opacity="1" fill-rule="nonzero"/></g></g></g></g><g mask="url(#264c3de737)"><g transform="matrix(1, 0, 0, 1, 1531, 830)"><g clip-path="url(#2a8b0fb512)"><g clip-path="url(#3f348b1c5b)"><g transform="matrix(1, 0, 0, 1, -0.000000000000227374, 1)"><g clip-path="url(#7d376ffab7)"><g clip-path="url(#ba463f4af4)"><path fill="#424242" d="M 0.40625 0.0507812 L 163.242188 0.0507812 L 163.242188 134.957031 L 0.40625 134.957031 Z M 0.40625 0.0507812 " fill-opacity="1" fill-rule="nonzero"/></g></g></g></g></g></g></g><g mask="url(#99a29640bd)"><g transform="matrix(1, 0, 0, 1, 717, 840)"><g clip-path="url(#4f553a92bf)"><g clip-path="url(#bccea7d7eb)"><g transform="matrix(1, 0, 0, 1, -0.000000000000113687, -0.000000000000227374)"><g clip-path="url(#da3f42fdf5)"><g clip-path="url(#cad6c031db)"><path fill="#424242" d="M 0.675781 0.09375 L 163.507812 0.09375 L 163.507812 135 L 0.675781 135 Z M 0.675781 0.09375 " fill-opacity="1" fill-rule="nonzero"/></g></g></g></g></g></g></g><g mask="url(#81c15ce4db)"><g transform="matrix(1, 0, 0, 1, 723, 296)"><g clip-path="url(#0ffea68e8e)"><g clip-path="url(#ff024b8319)"><g transform="matrix(1, 0, 0, 1, -0.000000000000227374, -0.000000000000056843)"><g clip-path="url(#7064807d49)"><g clip-path="url(#7ad9543fa9)"><path fill="#424242" d="M 0.574219 0.472656 L 163.410156 0.472656 L 163.410156 135.375 L 0.574219 135.375 Z M 0.574219 0.472656 " fill-opacity="1" fill-rule="nonzero"/></g></g></g></g></g></g></g><g mask="url(#84a96c1b8b)"><g transform="matrix(1, 0, 0, 1, 1046, 1110)"><g clip-path="url(#d4d977c67d)"><g clip-path="url(#8e4b66e32d)"><g transform="matrix(1, 0, 0, 1, -0.000000000000227374, -0.000000000000227374)"><g clip-path="url(#d746fc53d2)"><g clip-path="url(#a00b3cb156)"><path fill="#424242" d="M 0.679688 0.0625 L 163.511719 0.0625 L 163.511719 134.96875 L 0.679688 134.96875 Z M 0.679688 0.0625 " fill-opacity="1" fill-rule="nonzero"/></g></g></g></g></g></g></g><g mask="url(#9d5de56fb0)"><g transform="matrix(1, 0, 0, 1, 1854, 965)"><g clip-path="url(#b46ceb9c73)"><g clip-path="url(#48005e4cbb)"><g transform="matrix(1, 0, 0, 1, -0.000000000000454747, -0.000000000000227374)"><g clip-path="url(#3bc8891789)"><g clip-path="url(#0802fbc51c)"><path fill="#424242" d="M 0.753906 0.957031 L 163.589844 0.957031 L 163.589844 135.863281 L 0.753906 135.863281 Z M 0.753906 0.957031 " fill-opacity="1" fill-rule="nonzero"/></g></g></g></g></g></g></g><g mask="url(#502a310446)"><g transform="matrix(1, 0, 0, 1, 1208, 1383)"><g clip-path="url(#29dd193386)"><g clip-path="url(#67d42d1fae)"><g transform="matrix(1, 0, 0, 1, -0.000000000000227374, -0.000000000000227374)"><g clip-path="url(#4f85857290)"><g clip-path="url(#175d3977f5)"><path fill="#424242" d="M 0.335938 0.902344 L 163.171875 0.902344 L 163.171875 135.804688 L 0.335938 135.804688 Z M 0.335938 0.902344 " fill-opacity="1" fill-rule="nonzero"/></g></g></g></g></g></g></g><g mask="url(#a91f916cd3)"><g transform="matrix(1, 0, 0, 1, 396, 1248)"><g clip-path="url(#77849026e9)"><g clip-path="url(#38c0539266)"><g transform="matrix(1, 0, 0, 1, -0.000000000000113687, -0.000000000000227374)"><g clip-path="url(#f7455424b4)"><g clip-path="url(#08330d7080)"><path fill="#424242" d="M 0.414062 0.902344 L 163.25 0.902344 L 163.25 135.804688 L 0.414062 135.804688 Z M 0.414062 0.902344 " fill-opacity="1" fill-rule="nonzero"/></g></g></g></g></g></g></g><g mask="url(#b3f08ae7f5)"><g transform="matrix(1, 0, 0, 1, 1695, 427)"><g clip-path="url(#fc36ac30f9)"><g clip-path="url(#1aee5b6f5f)"><g transform="matrix(1, 0, 0, 1, -0.000000000000454747, -0.000000000000113687)"><g clip-path="url(#d3c2581f8f)"><g clip-path="url(#27238a99eb)"><path fill="#424242" d="M 0.164062 0.335938 L 163 0.335938 L 163 135.242188 L 0.164062 135.242188 Z M 0.164062 0.335938 " fill-opacity="1" fill-rule="nonzero"/></g></g></g></g></g></g></g></svg>